<svg width="24" height="24" viewBox="0 0 24 24" fill="none" xmlns="http://www.w3.org/2000/svg">
<path d="M13.211 3.1031C12.716 2.0991 11.285 2.0991 10.79 3.1031L8.43199 7.8801L3.15899 8.6461C2.05199 8.8071 1.60899 10.1681 2.41099 10.9491L6.22599 14.6691L5.32599 19.9191C5.13599 21.0221 6.29399 21.8631 7.28399 21.3431L12 18.8631L16.716 21.3431C17.706 21.8631 18.864 21.0231 18.675 19.9191L17.775 14.6691L21.59 10.9491C22.39 10.1691 21.949 8.8071 20.841 8.6461L15.57 7.8801L13.21 3.1031H13.211ZM1.16399 3.7821C1.03988 3.93752 0.982591 4.13587 1.00472 4.33353C1.02685 4.53119 1.12658 4.71197 1.28199 4.8361L3.78199 6.8361C3.93741 6.96035 4.13582 7.01778 4.33357 6.99574C4.43149 6.98483 4.5263 6.95474 4.61259 6.90719C4.69888 6.85964 4.77496 6.79555 4.83649 6.7186C4.89801 6.64164 4.94378 6.55332 4.97117 6.45868C4.99856 6.36404 5.00704 6.26493 4.99613 6.16701C4.98522 6.06909 4.95513 5.97428 4.90758 5.88799C4.86003 5.8017 4.79594 5.72562 4.71899 5.6641L2.21899 3.6641C2.142 3.60249 2.05362 3.55667 1.95891 3.52926C1.8642 3.50184 1.76501 3.49337 1.66702 3.50433C1.56903 3.51529 1.47416 3.54547 1.38785 3.59313C1.30153 3.64079 1.22546 3.70501 1.16399 3.7821Z" fill="#00A085"/>
<path d="M22.836 18.2179C22.9602 18.0626 23.0177 17.8644 22.9957 17.6667C22.9738 17.469 22.8743 17.2882 22.719 17.1639L20.219 15.1639C20.0636 15.0395 19.8651 14.982 19.6673 15.0039C19.4694 15.0259 19.2884 15.1255 19.164 15.2809C19.0396 15.4363 18.9821 15.6348 19.004 15.8327C19.0259 16.0305 19.1256 16.2115 19.281 16.3359L21.781 18.3359C21.8579 18.3976 21.9463 18.4435 22.0409 18.471C22.1356 18.4985 22.2348 18.507 22.3328 18.4962C22.4307 18.4853 22.5256 18.4552 22.612 18.4076C22.6983 18.3601 22.7745 18.2949 22.836 18.2179ZM1.28201 17.1639C1.12659 17.2882 1.0269 17.4691 1.00486 17.6668C0.982826 17.8646 1.04025 18.063 1.16451 18.2184C1.28876 18.3738 1.46966 18.4735 1.66742 18.4956C1.86518 18.5176 2.06359 18.4602 2.21901 18.3359L4.71901 16.3359C4.87442 16.2117 4.97411 16.0308 4.99615 15.833C5.01819 15.6353 4.96076 15.4368 4.83651 15.2814C4.71225 15.126 4.53135 15.0263 4.33359 15.0043C4.13583 14.9822 3.93742 15.0397 3.78201 15.1639L1.28201 17.1639ZM22.836 3.78192C22.9602 3.93722 23.0177 4.1355 22.9957 4.33315C22.9738 4.5308 22.8743 4.71165 22.719 4.83592L20.219 6.83592C20.0636 6.96031 19.8651 7.01786 19.6673 6.99592C19.4694 6.97398 19.2884 6.87434 19.164 6.71892C19.0396 6.56351 18.9821 6.36504 19.004 6.16719C19.0259 5.96934 19.1256 5.78831 19.281 5.66392L21.781 3.66392C21.858 3.60232 21.9464 3.5565 22.0411 3.52908C22.1358 3.50167 22.235 3.4932 22.333 3.50416C22.431 3.51512 22.5258 3.54529 22.6121 3.59296C22.6985 3.64062 22.7745 3.70483 22.836 3.78192Z" fill="#00A085"/>
</svg>
