<svg width="24" height="24" viewBox="0 0 24 24" fill="none" xmlns="http://www.w3.org/2000/svg">
<path d="M12.82 5.57995L12 6.40195L11.176 5.57795C10.325 4.72586 9.21248 4.18424 8.01689 4.03995C6.82129 3.89566 5.61188 4.15705 4.58259 4.78221C3.5533 5.40737 2.76377 6.36008 2.34061 7.48755C1.91746 8.61503 1.88519 9.85195 2.24898 11H3.85398C3.47482 10.1739 3.39805 9.24078 3.63708 8.36382C3.87611 7.48686 4.41575 6.7218 5.16166 6.20236C5.90757 5.68293 6.81231 5.44216 7.71774 5.52215C8.62317 5.60214 9.47169 5.99779 10.115 6.63995L11.473 7.99695C11.5436 8.06769 11.6277 8.12358 11.7203 8.16135C11.8129 8.19912 11.912 8.218 12.012 8.21689C12.112 8.21577 12.2107 8.19467 12.3024 8.15484C12.3941 8.11501 12.4769 8.05725 12.546 7.98495L13.88 6.63995C14.5237 5.9978 15.3725 5.60213 16.2783 5.522C17.184 5.44187 18.0891 5.68238 18.8356 6.20154C19.582 6.7207 20.1225 7.48554 20.3625 8.36254C20.6026 9.23954 20.527 10.173 20.149 11H21.754C22.1149 9.85166 22.0803 8.61551 21.6557 7.48921C21.2311 6.36291 20.4411 5.41152 19.412 4.7872C18.3829 4.16287 17.1742 3.90168 15.9791 4.0454C14.7841 4.18912 13.6717 4.72944 12.82 5.57995ZM11.47 21.075L4.89398 14.5H6.85698C6.90798 14.5 6.95898 14.497 7.00898 14.493L12 19.484L16.988 14.499H19.11L12.53 21.075C12.3894 21.2154 12.1987 21.2943 12 21.2943C11.8012 21.2943 11.6106 21.2154 11.47 21.075Z" fill="black"/>
<path d="M9.42 8.41412C9.35698 8.28852 9.25994 8.18316 9.13995 8.11004C9.01995 8.03691 8.88183 7.99897 8.74131 8.00053C8.6008 8.0021 8.46356 8.04311 8.34522 8.11888C8.22688 8.19466 8.13221 8.30215 8.072 8.42912L6.382 11.9991H2.75C2.55109 11.9991 2.36032 12.0781 2.21967 12.2188C2.07902 12.3594 2 12.5502 2 12.7491C2 12.948 2.07902 13.1388 2.21967 13.2794C2.36032 13.4201 2.55109 13.4991 2.75 13.4991H6.857C6.99904 13.4992 7.13816 13.4588 7.25819 13.3829C7.37821 13.307 7.47421 13.1985 7.535 13.0701L8.769 10.4641L11.329 15.5841C11.3865 15.6996 11.4729 15.7983 11.5798 15.8706C11.6866 15.943 11.8103 15.9865 11.9389 15.9971C12.0675 16.0077 12.1967 15.9849 12.3139 15.9309C12.4311 15.877 12.5324 15.7937 12.608 15.6891L15.306 11.9531L16.436 13.2431C16.5063 13.3237 16.5929 13.3883 16.6902 13.4326C16.7875 13.4769 16.8931 13.4999 17 13.5001H21.25C21.4489 13.5001 21.6397 13.4211 21.7803 13.2804C21.921 13.1398 22 12.949 22 12.7501C22 12.5512 21.921 12.3604 21.7803 12.2198C21.6397 12.0791 21.4489 12.0001 21.25 12.0001H17.34L15.814 10.2571C15.7398 10.1723 15.6474 10.1052 15.5437 10.061C15.44 10.0168 15.3276 9.99654 15.215 10.0017C15.1024 10.0069 14.9924 10.0374 14.8932 10.091C14.794 10.1446 14.7081 10.2198 14.642 10.3111L12.117 13.8071L9.421 8.41512L9.42 8.41412Z" fill="black"/>
</svg>
