<svg width="20" height="21" viewBox="0 0 20 21" fill="none" xmlns="http://www.w3.org/2000/svg">
<path d="M12.5 15.5001C13.1959 16.0243 14.0625 16.3343 15 16.3343C15.9017 16.3358 16.7793 16.0436 17.5 15.5018V18.2068C17.5002 18.3138 17.473 18.419 17.4208 18.5125C17.3687 18.6059 17.2935 18.6844 17.2023 18.7405C17.1112 18.7965 17.0071 18.8282 16.9002 18.8325C16.7933 18.8368 16.6871 18.8136 16.5917 18.7651L16.5167 18.7193L15 17.6593L13.4834 18.7193C13.3958 18.7804 13.294 18.8181 13.1877 18.8287C13.0814 18.8393 12.9741 18.8225 12.8762 18.7799C12.7782 18.7373 12.6928 18.6703 12.6281 18.5852C12.5634 18.5002 12.5216 18.4 12.5067 18.2943L12.5009 18.2068L12.5 15.5001ZM16.0417 3.00342C16.6253 3.00339 17.1869 3.22599 17.6119 3.62583C18.037 4.02566 18.2935 4.5726 18.3292 5.15508L18.3334 5.29508L18.3342 9.66675C17.9962 9.21683 17.5711 8.8396 17.0842 8.55758L17.0834 5.29508C17.0835 5.0372 16.9879 4.78844 16.8152 4.59695C16.6425 4.40545 16.4049 4.28483 16.1484 4.25842L16.0417 4.25342H3.95835C3.70047 4.2533 3.45171 4.34884 3.26022 4.52156C3.06872 4.69428 2.94809 4.93189 2.92169 5.18842L2.91669 5.29508V13.2118C2.91669 13.7509 3.32669 14.1951 3.85169 14.2476L3.95835 14.2534H11.3917C11.475 14.3968 11.5667 14.5351 11.6667 14.6668V15.5034H3.95835C3.37465 15.5034 2.81293 15.2807 2.38783 14.8807C1.96274 14.4807 1.7063 13.9335 1.67085 13.3509L1.66669 13.2118V5.29508C1.66666 4.71151 1.88926 4.14991 2.2891 3.72484C2.68893 3.29976 3.23587 3.04324 3.81835 3.00758L3.95835 3.00342H16.0417ZM15 8.83342C15.8841 8.83342 16.7319 9.18461 17.357 9.80973C17.9822 10.4349 18.3334 11.2827 18.3334 12.1668C18.3334 13.0508 17.9822 13.8987 17.357 14.5238C16.7319 15.1489 15.8841 15.5001 15 15.5001C14.116 15.5001 13.2681 15.1489 12.643 14.5238C12.0179 13.8987 11.6667 13.0508 11.6667 12.1668C11.6667 11.2827 12.0179 10.4349 12.643 9.80973C13.2681 9.18461 14.116 8.83342 15 8.83342ZM9.37502 10.9168C9.53337 10.9168 9.6858 10.977 9.80151 11.0851C9.91722 11.1932 9.98758 11.3412 9.99837 11.4992C10.0092 11.6571 9.95959 11.8133 9.85966 11.9362C9.75973 12.059 9.6169 12.1393 9.46002 12.1609L9.37502 12.1668H5.62502C5.46667 12.1667 5.31424 12.1065 5.19853 11.9984C5.08282 11.8903 5.01246 11.7423 5.00167 11.5844C4.99087 11.4264 5.04045 11.2702 5.14038 11.1473C5.24031 11.0245 5.38315 10.9442 5.54002 10.9226L5.62502 10.9168H9.37502ZM14.375 6.33342C14.5334 6.33347 14.6858 6.39362 14.8015 6.50173C14.9172 6.60984 14.9876 6.75783 14.9984 6.91582C15.0092 7.0738 14.9596 7.23 14.8597 7.35283C14.7597 7.47567 14.6169 7.556 14.46 7.57759L14.375 7.58342H5.62502C5.46667 7.58337 5.31424 7.52321 5.19853 7.41511C5.08282 7.307 5.01246 7.159 5.00167 7.00102C4.99087 6.84303 5.04045 6.68684 5.14038 6.564C5.24031 6.44116 5.38315 6.36084 5.54002 6.33925L5.62502 6.33342H14.375Z" fill="#00A085"/>
</svg>
