<svg width="20" height="21" viewBox="0 0 20 21" fill="none" xmlns="http://www.w3.org/2000/svg">
<path d="M4.16669 15.2917V12.1533L7.55002 14.3642C8.27849 14.8401 9.12984 15.0936 10 15.0936C10.8702 15.0936 11.7215 14.8401 12.45 14.3642L15.8334 12.1533V15.2917C15.8334 15.4269 15.7895 15.5585 15.7084 15.6667L15.7075 15.6675L15.7067 15.6692L15.7042 15.6725L15.6967 15.6808L15.6867 15.6942L15.6759 15.7083L15.6042 15.7925C15.5201 15.8879 15.432 15.9796 15.34 16.0675C15.1092 16.29 14.765 16.5792 14.2984 16.8658C13.3642 17.4408 11.9492 18 10 18C8.05085 18 6.63669 17.4417 5.70085 16.8658C5.32638 16.6376 4.9772 16.3703 4.65919 16.0683C4.53303 15.9466 4.4142 15.8175 4.30335 15.6817L4.29585 15.6733L4.29335 15.6692V15.6675C4.21172 15.5591 4.16729 15.4273 4.16669 15.2917Z" fill="#00A085"/>
<path d="M18.4667 8.94001L11.7667 13.3175C11.2414 13.6608 10.6275 13.8436 10 13.8436C9.3725 13.8436 8.75859 13.6608 8.23333 13.3175L2.5 9.57168V14.0417C2.5 14.2074 2.43415 14.3664 2.31694 14.4836C2.19973 14.6008 2.04076 14.6667 1.875 14.6667C1.70924 14.6667 1.55027 14.6008 1.43306 14.4836C1.31585 14.3664 1.25 14.2074 1.25 14.0417V8.83334C1.25 8.76001 1.2625 8.69001 1.28583 8.62501C1.2389 8.49218 1.23822 8.34739 1.2839 8.21413C1.32959 8.08087 1.41895 7.96695 1.5375 7.89084L8.2575 3.58251C8.77755 3.24919 9.3823 3.07202 10 3.07202C10.6177 3.07202 11.2224 3.24919 11.7425 3.58251L18.4625 7.89084C18.5503 7.94719 18.6225 8.02461 18.6727 8.11604C18.7229 8.20746 18.7494 8.31 18.7498 8.41429C18.7502 8.51859 18.7246 8.62133 18.6751 8.71316C18.6256 8.80498 18.554 8.88297 18.4667 8.94001Z" fill="#00A085"/>
</svg>
