<svg width="20" height="21" viewBox="0 0 20 21" fill="none" xmlns="http://www.w3.org/2000/svg">
<path d="M5.83333 13.8334C6.05435 13.8334 6.26631 13.7456 6.42259 13.5893C6.57887 13.4331 6.66667 13.2211 6.66667 13.0001C6.66667 12.7791 6.57887 12.5671 6.42259 12.4108C6.26631 12.2545 6.05435 12.1667 5.83333 12.1667C5.61232 12.1667 5.40036 12.2545 5.24408 12.4108C5.0878 12.5671 5 12.7791 5 13.0001C5 13.2211 5.0878 13.4331 5.24408 13.5893C5.40036 13.7456 5.61232 13.8334 5.83333 13.8334ZM6.66667 15.5001C6.66667 15.7211 6.57887 15.9331 6.42259 16.0893C6.26631 16.2456 6.05435 16.3334 5.83333 16.3334C5.61232 16.3334 5.40036 16.2456 5.24408 16.0893C5.0878 15.9331 5 15.7211 5 15.5001C5 15.2791 5.0878 15.0671 5.24408 14.9108C5.40036 14.7545 5.61232 14.6667 5.83333 14.6667C6.05435 14.6667 6.26631 14.7545 6.42259 14.9108C6.57887 15.0671 6.66667 15.2791 6.66667 15.5001ZM5.83333 11.3334C6.05435 11.3334 6.26631 11.2456 6.42259 11.0893C6.57887 10.9331 6.66667 10.7211 6.66667 10.5001C6.66667 10.2791 6.57887 10.0671 6.42259 9.91083C6.26631 9.75455 6.05435 9.66675 5.83333 9.66675C5.61232 9.66675 5.40036 9.75455 5.24408 9.91083C5.0878 10.0671 5 10.2791 5 10.5001C5 10.7211 5.0878 10.9331 5.24408 11.0893C5.40036 11.2456 5.61232 11.3334 5.83333 11.3334ZM6.66667 8.00008C6.66667 8.2211 6.57887 8.43306 6.42259 8.58934C6.26631 8.74562 6.05435 8.83342 5.83333 8.83342C5.61232 8.83342 5.40036 8.74562 5.24408 8.58934C5.0878 8.43306 5 8.2211 5 8.00008C5 7.77907 5.0878 7.56711 5.24408 7.41083C5.40036 7.25455 5.61232 7.16675 5.83333 7.16675C6.05435 7.16675 6.26631 7.25455 6.42259 7.41083C6.57887 7.56711 6.66667 7.77907 6.66667 8.00008ZM5.83333 6.33341C6.05435 6.33341 6.26631 6.24562 6.42259 6.08934C6.57887 5.93306 6.66667 5.7211 6.66667 5.50008C6.66667 5.27907 6.57887 5.06711 6.42259 4.91083C6.26631 4.75455 6.05435 4.66675 5.83333 4.66675C5.61232 4.66675 5.40036 4.75455 5.24408 4.91083C5.0878 5.06711 5 5.27907 5 5.50008C5 5.7211 5.0878 5.93306 5.24408 6.08934C5.40036 6.24562 5.61232 6.33341 5.83333 6.33341Z" fill="#00A085"/>
<path d="M11.6667 4.04175V4.66675H15.625C16.1223 4.66675 16.5992 4.86429 16.9508 5.21592C17.3025 5.56755 17.5 6.04447 17.5 6.54175V17.7917C17.5 17.9575 17.4342 18.1165 17.3169 18.2337C17.1997 18.3509 17.0408 18.4167 16.875 18.4167H14.7917C14.6812 18.4167 14.5752 18.3728 14.497 18.2947C14.4189 18.2166 14.375 18.1106 14.375 18.0001V16.1251C14.375 16.0146 14.3311 15.9086 14.253 15.8305C14.1748 15.7523 14.0688 15.7084 13.9583 15.7084H11.875C11.7645 15.7084 11.6585 15.7523 11.5804 15.8305C11.5022 15.9086 11.4583 16.0146 11.4583 16.1251V18.0001C11.4583 18.1106 11.4144 18.2166 11.3363 18.2947C11.2582 18.3728 11.1522 18.4167 11.0417 18.4167H3.125C2.95924 18.4167 2.80027 18.3509 2.68306 18.2337C2.56585 18.1165 2.5 17.9575 2.5 17.7917V4.04175C2.5 3.54447 2.69754 3.06755 3.04917 2.71592C3.40081 2.36429 3.87772 2.16675 4.375 2.16675H9.79167C10.2889 2.16675 10.7659 2.36429 11.1175 2.71592C11.4691 3.06755 11.6667 3.54447 11.6667 4.04175ZM4.375 3.41675C4.20924 3.41675 4.05027 3.4826 3.93306 3.59981C3.81585 3.71702 3.75 3.87599 3.75 4.04175V17.1667H8.33333V6.54175C8.33333 6.04447 8.53088 5.56755 8.88251 5.21592C9.23414 4.86429 9.71105 4.66675 10.2083 4.66675H10.4167V4.04175C10.4167 3.87599 10.3508 3.71702 10.2336 3.59981C10.1164 3.4826 9.95743 3.41675 9.79167 3.41675H4.375ZM15 13.0001C15 12.7791 14.9122 12.5671 14.7559 12.4108C14.5996 12.2545 14.3877 12.1667 14.1667 12.1667C13.9457 12.1667 13.7337 12.2545 13.5774 12.4108C13.4211 12.5671 13.3333 12.7791 13.3333 13.0001C13.3333 13.2211 13.4211 13.4331 13.5774 13.5893C13.7337 13.7456 13.9457 13.8334 14.1667 13.8334C14.3877 13.8334 14.5996 13.7456 14.7559 13.5893C14.9122 13.4331 15 13.2211 15 13.0001ZM11.6667 13.8334C11.8877 13.8334 12.0996 13.7456 12.2559 13.5893C12.4122 13.4331 12.5 13.2211 12.5 13.0001C12.5 12.7791 12.4122 12.5671 12.2559 12.4108C12.0996 12.2545 11.8877 12.1667 11.6667 12.1667C11.4457 12.1667 11.2337 12.2545 11.0774 12.4108C10.9211 12.5671 10.8333 12.7791 10.8333 13.0001C10.8333 13.2211 10.9211 13.4331 11.0774 13.5893C11.2337 13.7456 11.4457 13.8334 11.6667 13.8334ZM15 10.5001C15 10.2791 14.9122 10.0671 14.7559 9.91083C14.5996 9.75455 14.3877 9.66675 14.1667 9.66675C13.9457 9.66675 13.7337 9.75455 13.5774 9.91083C13.4211 10.0671 13.3333 10.2791 13.3333 10.5001C13.3333 10.7211 13.4211 10.9331 13.5774 11.0893C13.7337 11.2456 13.9457 11.3334 14.1667 11.3334C14.3877 11.3334 14.5996 11.2456 14.7559 11.0893C14.9122 10.9331 15 10.7211 15 10.5001ZM11.6667 11.3334C11.8877 11.3334 12.0996 11.2456 12.2559 11.0893C12.4122 10.9331 12.5 10.7211 12.5 10.5001C12.5 10.2791 12.4122 10.0671 12.2559 9.91083C12.0996 9.75455 11.8877 9.66675 11.6667 9.66675C11.4457 9.66675 11.2337 9.75455 11.0774 9.91083C10.9211 10.0671 10.8333 10.2791 10.8333 10.5001C10.8333 10.7211 10.9211 10.9331 11.0774 11.0893C11.2337 11.2456 11.4457 11.3334 11.6667 11.3334ZM15 8.00008C15 7.77907 14.9122 7.56711 14.7559 7.41083C14.5996 7.25455 14.3877 7.16675 14.1667 7.16675C13.9457 7.16675 13.7337 7.25455 13.5774 7.41083C13.4211 7.56711 13.3333 7.77907 13.3333 8.00008C13.3333 8.2211 13.4211 8.43306 13.5774 8.58934C13.7337 8.74562 13.9457 8.83341 14.1667 8.83341C14.3877 8.83341 14.5996 8.74562 14.7559 8.58934C14.9122 8.43306 15 8.2211 15 8.00008ZM11.6667 8.83341C11.8877 8.83341 12.0996 8.74562 12.2559 8.58934C12.4122 8.43306 12.5 8.2211 12.5 8.00008C12.5 7.77907 12.4122 7.56711 12.2559 7.41083C12.0996 7.25455 11.8877 7.16675 11.6667 7.16675C11.4457 7.16675 11.2337 7.25455 11.0774 7.41083C10.9211 7.56711 10.8333 7.77907 10.8333 8.00008C10.8333 8.2211 10.9211 8.43306 11.0774 8.58934C11.2337 8.74562 11.4457 8.83341 11.6667 8.83341Z" fill="#00A085"/>
</svg>
