<svg width="20" height="21" viewBox="0 0 20 21" fill="none" xmlns="http://www.w3.org/2000/svg">
<path d="M7.96917 6.75425L8.01584 6.85175L12.4383 17.6892C12.5188 17.8862 12.5209 18.1064 12.4442 18.3048C12.3675 18.5033 12.2178 18.6648 12.0258 18.7565C11.8338 18.8481 11.6141 18.8628 11.4116 18.7976C11.2091 18.7325 11.0392 18.5923 10.9367 18.4059L10.895 18.3184L9.74417 15.5001H4.50584L3.26417 18.3392C3.1822 18.5263 3.03439 18.6767 2.84882 18.762C2.66324 18.8473 2.45282 18.8614 2.2575 18.8017L2.16584 18.7684C1.97864 18.6866 1.82801 18.5388 1.74259 18.3533C1.65717 18.1677 1.64291 17.9572 1.7025 17.7617L1.73584 17.6701L6.48167 6.83341C6.76167 6.19175 7.64334 6.17091 7.97 6.75508L7.96917 6.75425ZM15.8333 2.16675C16.0374 2.16677 16.2345 2.24171 16.387 2.37734C16.5395 2.51298 16.637 2.69987 16.6608 2.90258L16.6667 3.00008V6.33341H17.5C17.7041 6.33344 17.9011 6.40838 18.0536 6.54401C18.2062 6.67964 18.3036 6.86654 18.3275 7.06925L18.3333 7.16675C18.3333 7.37086 18.2584 7.56786 18.1227 7.72039C17.9871 7.87292 17.8002 7.97037 17.5975 7.99425L17.5 8.00008H16.6667V13.8334C16.6666 14.0375 16.5917 14.2345 16.4561 14.3871C16.3204 14.5396 16.1335 14.637 15.9308 14.6609L15.8333 14.6667C15.6292 14.6667 15.4322 14.5918 15.2797 14.4562C15.1272 14.3205 15.0297 14.1336 15.0058 13.9309L15 13.8334V3.00008C15 2.77907 15.0878 2.56711 15.2441 2.41083C15.4004 2.25455 15.6123 2.16675 15.8333 2.16675ZM7.21667 9.30591L5.235 13.8334H9.06417L7.21667 9.30591ZM9.16667 2.16675H13.3333C13.5374 2.16677 13.7345 2.24171 13.887 2.37734C14.0395 2.51298 14.137 2.69987 14.1608 2.90258L14.1667 3.00008V5.47925C14.1667 6.3633 13.8155 7.21115 13.1904 7.83627C12.5652 8.46139 11.7174 8.81258 10.8333 8.81258C10.6123 8.81258 10.4004 8.72478 10.2441 8.5685C10.0878 8.41222 10 8.20026 10 7.97925C10 7.75823 10.0878 7.54627 10.2441 7.38999C10.4004 7.23371 10.6123 7.14591 10.8333 7.14591C11.2538 7.14605 11.6588 6.98724 11.9671 6.70133C12.2754 6.41543 12.4643 6.02354 12.4958 5.60425L12.5 5.47925V3.83341H9.16667C8.95427 3.83318 8.74998 3.75185 8.59553 3.60604C8.44108 3.46023 8.34814 3.26095 8.33569 3.04892C8.32325 2.83688 8.39223 2.6281 8.52856 2.46522C8.66488 2.30234 8.85826 2.19767 9.06917 2.17258L9.16667 2.16675Z" fill="#00A085"/>
</svg>
