<svg width="24" height="24" viewBox="0 0 24 24" fill="none" xmlns="http://www.w3.org/2000/svg">
<path d="M5 6.25C5 5.65326 5.23705 5.08097 5.65901 4.65901C6.08097 4.23705 6.65326 4 7.25 4H15.75C16.3467 4 16.919 4.23705 17.341 4.65901C17.7629 5.08097 18 5.65326 18 6.25V14H21.5V17.25C21.5 18.112 21.1576 18.9386 20.5481 19.5481C19.9386 20.1576 19.112 20.5 18.25 20.5H13V16.5H14.25C14.4489 16.5 14.6397 16.421 14.7803 16.2803C14.921 16.1397 15 15.9489 15 15.75C15 15.5511 14.921 15.3603 14.7803 15.2197C14.6397 15.079 14.4489 15 14.25 15H12.5C12.2673 14.6893 11.9654 14.4371 11.6182 14.2635C11.2711 14.0899 10.8882 13.9997 10.5 14H5V6.25ZM18 19H18.25C18.7141 19 19.1592 18.8156 19.4874 18.4874C19.8156 18.1592 20 17.7141 20 17.25V15.5H18V19ZM8.75 8C8.55109 8 8.36032 8.07902 8.21967 8.21967C8.07902 8.36032 8 8.55109 8 8.75C8 8.94891 8.07902 9.13968 8.21967 9.28033C8.36032 9.42098 8.55109 9.5 8.75 9.5H14.25C14.4489 9.5 14.6397 9.42098 14.7803 9.28033C14.921 9.13968 15 8.94891 15 8.75C15 8.55109 14.921 8.36032 14.7803 8.21967C14.6397 8.07902 14.4489 8 14.25 8H8.75ZM8.75 11.5C8.55109 11.5 8.36032 11.579 8.21967 11.7197C8.07902 11.8603 8 12.0511 8 12.25C8 12.4489 8.07902 12.6397 8.21967 12.7803C8.36032 12.921 8.55109 13 8.75 13H14.25C14.4489 13 14.6397 12.921 14.7803 12.7803C14.921 12.6397 15 12.4489 15 12.25C15 12.0511 14.921 11.8603 14.7803 11.7197C14.6397 11.579 14.4489 11.5 14.25 11.5H8.75ZM1 16.5C1 16.1022 1.15804 15.7206 1.43934 15.4393C1.72064 15.158 2.10218 15 2.5 15H10.5C10.8978 15 11.2794 15.158 11.5607 15.4393C11.842 15.7206 12 16.1022 12 16.5V20.5C12 20.8978 11.842 21.2794 11.5607 21.5607C11.2794 21.842 10.8978 22 10.5 22H2.5C2.10218 22 1.72064 21.842 1.43934 21.5607C1.15804 21.2794 1 20.8978 1 20.5V16.5ZM11 17C10.7348 17 10.4804 16.8946 10.2929 16.7071C10.1054 16.5196 10 16.2652 10 16H9C9 16.5304 9.21071 17.0391 9.58579 17.4142C9.96086 17.7893 10.4696 18 11 18V17ZM11 19C10.4696 19 9.96086 19.2107 9.58579 19.5858C9.21071 19.9609 9 20.4696 9 21H10C10 20.7348 10.1054 20.4804 10.2929 20.2929C10.4804 20.1054 10.7348 20 11 20V19ZM3 16C3 16.2652 2.89464 16.5196 2.70711 16.7071C2.51957 16.8946 2.26522 17 2 17V18C2.53043 18 3.03914 17.7893 3.41421 17.4142C3.78929 17.0391 4 16.5304 4 16H3ZM4 21C4 20.4696 3.78929 19.9609 3.41421 19.5858C3.03914 19.2107 2.53043 19 2 19V20C2.26522 20 2.51957 20.1054 2.70711 20.2929C2.89464 20.4804 3 20.7348 3 21H4ZM8.25 18.5C8.25 18.0359 8.06563 17.5908 7.73744 17.2626C7.40925 16.9344 6.96413 16.75 6.5 16.75C6.03587 16.75 5.59075 16.9344 5.26256 17.2626C4.93437 17.5908 4.75 18.0359 4.75 18.5C4.75 18.9641 4.93437 19.4092 5.26256 19.7374C5.59075 20.0656 6.03587 20.25 6.5 20.25C6.96413 20.25 7.40925 20.0656 7.73744 19.7374C8.06563 19.4092 8.25 18.9641 8.25 18.5Z" fill="#00A085"/>
</svg>
