<svg width="24" height="24" viewBox="0 0 24 24" fill="none" xmlns="http://www.w3.org/2000/svg">
<path d="M12 2C17.523 2 22 6.477 22 12C22 17.523 17.523 22 12 22C10.3822 22.0021 8.78828 21.6102 7.35599 20.858L3.06599 21.975C2.92265 22.0123 2.77204 22.0116 2.62908 21.9728C2.48613 21.934 2.3558 21.8585 2.25101 21.7538C2.14622 21.6491 2.0706 21.5188 2.03166 21.3759C1.99272 21.233 1.9918 21.0824 2.02899 20.939L3.14499 16.65C2.39079 15.2162 1.99777 13.6201 1.99999 12C1.99999 6.477 6.47699 2 12 2ZM13.252 13H8.74999L8.64799 13.007C8.46848 13.0317 8.30398 13.1206 8.18491 13.2571C8.06583 13.3937 8.00022 13.5688 8.00022 13.75C8.00022 13.9312 8.06583 14.1063 8.18491 14.2429C8.30398 14.3794 8.46848 14.4683 8.64799 14.493L8.74999 14.5H13.252L13.353 14.493C13.5325 14.4683 13.697 14.3794 13.8161 14.2429C13.9352 14.1063 14.0008 13.9312 14.0008 13.75C14.0008 13.5688 13.9352 13.3937 13.8161 13.2571C13.697 13.1206 13.5325 13.0317 13.353 13.007L13.252 13ZM15.25 9.5H8.74999L8.64799 9.507C8.46848 9.5317 8.30398 9.62055 8.18491 9.75714C8.06583 9.89372 8.00022 10.0688 8.00022 10.25C8.00022 10.4312 8.06583 10.6063 8.18491 10.7429C8.30398 10.8794 8.46848 10.9683 8.64799 10.993L8.74999 11H15.25L15.352 10.993C15.5315 10.9683 15.696 10.8794 15.8151 10.7429C15.9342 10.6063 15.9998 10.4312 15.9998 10.25C15.9998 10.0688 15.9342 9.89372 15.8151 9.75714C15.696 9.62055 15.5315 9.5317 15.352 9.507L15.25 9.5Z" fill="white"/>
</svg>
