<svg width="67" height="36" viewBox="0 0 67 36" fill="none" xmlns="http://www.w3.org/2000/svg">
<path d="M30.86 24.2442C31.0896 24.1064 31.3651 24.0452 31.6406 24.0452C31.8549 24.0452 32.0692 24.0911 32.2529 24.1829C32.4519 24.2748 32.6203 24.4125 32.7581 24.5656L33.2632 24.0605C33.0642 23.8156 32.8193 23.6319 32.5438 23.5094C32.207 23.3716 31.8549 23.3104 31.4876 23.3257C31.1202 23.341 30.7681 23.4482 30.462 23.6166C30.1252 23.8156 29.8497 24.0911 29.6507 24.4431C29.4517 24.8105 29.3599 25.2085 29.3599 25.6218C29.3599 26.0351 29.4517 26.4331 29.6507 26.8004C29.8344 27.1372 30.1099 27.428 30.4467 27.627C30.7987 27.826 31.1967 27.9332 31.5947 27.9179C31.9162 27.9179 32.2376 27.8566 32.5438 27.7342C32.8193 27.6117 33.0795 27.4127 33.2632 27.1831L32.7581 26.678C32.6203 26.8464 32.4519 26.9841 32.2529 27.076C32.0539 27.1678 31.8396 27.2137 31.6253 27.2137C31.3498 27.2137 31.0896 27.1525 30.8447 27.0147C30.6151 26.877 30.4314 26.6933 30.3089 26.4637C30.1865 26.2188 30.1099 25.9279 30.1099 25.6524C30.1099 25.3769 30.1712 25.1014 30.3089 24.8411C30.4467 24.5809 30.6304 24.3819 30.86 24.2442ZM30.0793 19.0704H32.2223V20.9837H32.9877V16.5141H32.2223V18.3509H30.0793V16.5141H29.314V20.9837H30.0793V19.0704ZM33.9367 20.9837H34.7021V16.5141H33.9367V20.9837ZM37.9778 16.7131C37.6869 16.5753 37.3655 16.5141 37.044 16.5294H35.6664V20.9837H36.4318V19.6979H37.044C37.3655 19.6979 37.6869 19.6367 37.9778 19.5143C38.238 19.3918 38.4523 19.2081 38.5901 18.9632C38.7278 18.703 38.8044 18.4122 38.8044 18.1213C38.8044 17.8305 38.7278 17.5396 38.5901 17.2794C38.4523 17.0192 38.238 16.8355 37.9778 16.7131ZM37.7635 18.7642C37.5951 18.9173 37.3349 18.9938 36.9981 18.9938H36.4318V17.2182H36.9981C37.3349 17.2182 37.5951 17.2947 37.7635 17.4478C37.9319 17.6009 38.0237 17.8152 38.0237 18.106C38.0237 18.3968 37.9472 18.6111 37.7635 18.7642ZM45.5089 16.5294L43.4424 20.9837H44.3149L44.7741 19.9582H47.0702L47.5294 20.9837H48.4172L46.3507 16.5141H45.5089V16.5294ZM45.065 19.3L45.9221 17.356L46.7794 19.3H45.065ZM37.289 23.6166C36.9369 23.4176 36.5389 23.3257 36.1256 23.3257C35.7123 23.3257 35.3296 23.4329 34.9623 23.6166C34.6255 23.8156 34.3347 24.0911 34.151 24.4431C33.952 24.8105 33.8602 25.2085 33.8602 25.6218C33.8602 26.0351 33.9673 26.4331 34.151 26.8004C34.3347 27.1372 34.6255 27.428 34.9623 27.627C35.3143 27.826 35.7123 27.9179 36.1256 27.9179C36.5389 27.9179 36.9216 27.8107 37.289 27.627C37.6257 27.428 37.9012 27.1525 38.1002 26.8004C38.2992 26.4331 38.3911 26.0351 38.3911 25.6218C38.3911 25.2085 38.2839 24.8105 38.1002 24.4431C37.9012 24.0911 37.6257 23.8156 37.289 23.6166ZM37.4114 26.4178C37.289 26.6474 37.1053 26.8464 36.891 26.9841C36.6614 27.1219 36.4011 27.1831 36.1409 27.1831C35.8807 27.1831 35.6205 27.1066 35.3909 26.9841C35.1613 26.8464 34.9776 26.6627 34.8704 26.4178C34.748 26.1728 34.6714 25.8973 34.6714 25.6065C34.6714 25.3157 34.7327 25.0554 34.8704 24.7952C34.9929 24.5656 35.1766 24.3666 35.3909 24.2288C35.6205 24.0911 35.8807 24.0299 36.1409 24.0299C36.4011 24.0299 36.6614 24.1064 36.891 24.2288C37.1206 24.3666 37.3043 24.5503 37.4114 24.7952C37.5339 25.0401 37.6104 25.3157 37.6104 25.6065C37.6104 25.8973 37.5339 26.1728 37.4114 26.4178ZM63.4335 23.387V24.0911H64.8264V27.8566H65.6071V24.0911H67V23.387H63.4335ZM62.1936 26.4025L59.8822 23.387H59.2393V27.8566H60.02V24.8411L62.3314 27.8566H62.9742V23.387H62.1936V26.4025ZM42.876 23.387L41.5749 25.7596L40.2432 23.387H39.2789V27.8566H40.1055V24.7646L41.5596 27.3362L43.0444 24.7187V27.8413H43.871V23.3717H42.876V23.387ZM47.1008 23.5706C46.81 23.4329 46.4732 23.3717 46.1518 23.387H44.7588V27.8566H45.5395V26.5708H46.1518C46.4732 26.5708 46.81 26.5096 47.1008 26.3871C47.361 26.2647 47.5753 26.081 47.7284 25.8361C47.8661 25.5759 47.9427 25.285 47.9427 24.9942C47.9427 24.7034 47.8661 24.4125 47.7284 24.1523C47.5753 23.8921 47.361 23.6931 47.1008 23.5706ZM46.8865 25.6371C46.7181 25.7902 46.4579 25.8667 46.1058 25.8667H45.5242V24.0911H46.1058C46.4426 24.0911 46.7028 24.1676 46.8865 24.3207C47.0549 24.4738 47.1467 24.6881 47.1467 24.9789C47.162 25.2544 47.0702 25.484 46.8865 25.6371ZM41.9729 19.9582L42.4321 20.9837H43.3199L41.2535 16.5141H40.4116L38.3605 20.9837H39.233L39.6922 19.9582H41.9729ZM40.8402 17.356L41.6974 19.3H39.983L40.8402 17.356ZM49.4428 23.387H48.6621V27.8566H51.6317V27.1525H49.4428V23.387ZM52.2746 27.8413H53.0553V23.3717H52.2746V27.8413ZM20.8951 32.8774C20.9104 33.9488 20.9257 34.7295 20.941 35.1122C20.9563 35.1581 20.9563 35.2193 20.941 35.2653C20.941 35.3265 20.941 35.3724 20.941 35.3724C20.941 35.5867 20.9716 35.801 21.0328 36C21.0941 35.801 21.1247 35.5867 21.1247 35.3724C21.1247 35.2959 21.1553 34.1785 21.2012 32.3875C21.1859 32.4028 21.1706 32.4181 21.1706 32.4334C21.0634 32.5712 20.9716 32.7243 20.8951 32.8774ZM17.7112 10.529C17.9561 10.2688 18.1857 9.96264 18.3541 9.64119C18.2316 9.91672 17.7571 10.9576 18.2163 11.0494C18.7215 11.1413 19.2878 10.9882 20.3134 9.68711C20.2828 8.01864 20.2522 6.56447 20.2369 5.46236H19.6858C19.6552 5.46236 19.6399 5.46236 19.6093 5.46236C19.3031 5.46236 18.798 5.43174 18.4612 4.92661C18.0939 4.37555 18.0786 3.80919 18.0632 3.3959C18.0479 2.79892 17.8949 1.71212 17.1448 1.09983C16.6244 0.686542 15.2161 0.365093 13.915 0.885534C13.4864 1.05391 12.6292 1.49782 11.7873 1.91111C11.022 2.29379 10.0423 2.76831 9.73619 2.76831C10.2413 2.5387 10.9148 2.20194 11.6496 1.78865C12.4915 1.32944 13.3793 0.839613 13.8232 0.655928C14.711 0.303864 16.4101 0.196716 17.2826 0.900842C18.1092 1.57435 18.2775 2.73769 18.2929 3.36528C18.3082 3.77857 18.3235 4.28371 18.6449 4.78884C18.9358 5.21744 19.395 5.21744 19.6705 5.21744H19.7317H20.2215C20.2215 5.07968 20.2215 4.95722 20.2215 4.81946C19.7317 4.85007 19.0276 4.88068 18.7215 4.22248C18.3541 3.42651 18.7521 1.39067 17.5275 0.533472C16.3029 -0.323725 14.3436 -0.109426 12.5986 0.900842C10.8689 1.8958 8.57285 3.1969 5.74104 4.32963C2.90923 5.46235 1.14892 5.92157 0.812162 5.96749C0.490713 6.02872 1.07238 6.24301 2.28164 6.27363C3.4909 6.30424 4.50117 6.2124 4.50117 6.2124L13.3793 2.17133C13.3793 2.17133 5.72574 5.98279 5.08284 6.39609C4.43994 6.80938 3.9195 6.94714 3.96542 7.32982C4.01134 7.7125 4.50117 7.66658 5.84819 7.63596C7.19522 7.60535 7.48605 7.48289 7.94526 7.34513C8.40448 7.20736 13.3793 4.9113 13.3793 4.9113C13.3793 4.9113 8.05241 7.55943 7.28706 8.17171C6.5217 8.78399 7.34829 8.98298 7.86873 8.99829C8.40448 9.0136 9.82804 8.93706 10.624 8.53908C11.42 8.14109 13.8997 6.54916 13.8997 6.54916C13.8997 6.54916 11.4506 8.30947 10.9761 8.70746C10.5934 9.02891 10.3944 9.30443 10.4862 9.64119C10.624 10.0698 11.3587 10.0239 12.3384 9.6718C12.3384 9.6718 13.3487 9.31974 13.7313 8.98299C14.114 8.63092 15.1855 7.68188 15.1855 7.68188C15.1855 7.68188 13.915 8.99829 13.5936 9.56465C13.2874 10.131 13.2262 10.2688 13.3793 10.5902C13.5936 11.0494 15.2161 10.5749 15.6753 10.0851C16.0121 9.70242 16.3335 9.30443 16.6244 8.87583C16.6244 8.87583 16.1346 9.67181 16.0274 10.131C15.9203 10.5902 15.7978 10.9576 16.2417 11.0035C16.7315 11.0801 17.1907 11.0954 17.7112 10.529ZM20.742 20.9531C20.7879 20.9225 20.8338 20.8919 20.8798 20.8613C20.9716 20.8001 21.0481 20.7541 21.1094 20.6929C21.2318 20.6164 21.3543 20.5245 21.4767 20.448C21.492 19.5755 21.5227 18.6877 21.538 17.8152C21.293 17.708 21.0328 17.6009 20.7573 17.4937C20.742 17.4937 20.7267 17.4784 20.7114 17.4784C20.6808 17.4631 20.6655 17.4631 20.6348 17.4478C20.4512 17.3866 20.2828 17.31 20.0838 17.2488C19.8542 17.157 19.6246 17.0804 19.395 16.9886C17.8643 17.7999 17.5581 18.1825 17.5581 18.9326C17.5581 19.9888 18.4612 20.4633 20.0226 21.4583C20.2675 21.2746 20.5124 21.1062 20.742 20.9531ZM18.8592 19.0704C18.8592 19.0704 18.7521 18.3968 20.4818 17.6162C20.5277 17.6009 20.5736 17.5703 20.6195 17.555C20.6348 18.6111 20.6502 19.6673 20.6808 20.7235C19.8236 20.1419 18.8592 19.5908 18.8592 19.0704ZM21.4767 32.0661C21.4002 32.1579 21.3237 32.2498 21.2471 32.3263C21.691 32.9233 21.6604 33.5049 21.4155 34.255C21.6451 33.9948 22.1043 33.3366 21.7216 32.4794C21.6451 32.3416 21.5686 32.2038 21.4767 32.0661ZM20.7726 25.7902C20.941 25.9585 21.14 26.1575 21.339 26.3565C21.4614 26.479 21.5839 26.6014 21.7216 26.7392C21.737 26.7545 21.7676 26.7698 21.7982 26.8004C22.8391 25.8973 23.7881 25.0401 23.7881 23.9686C23.7881 23.1267 22.9768 22.3614 22.1656 21.7491C22.089 21.795 22.0125 21.8409 21.9359 21.9022C21.7523 22.0246 21.5839 22.1318 21.4308 22.2389C21.4308 22.2389 21.4155 22.2389 21.4155 22.2542C21.3849 22.2848 21.339 22.3002 21.3084 22.3308C21.0941 22.4838 20.8951 22.6216 20.7114 22.7594C20.742 23.7849 20.7573 24.8105 20.7726 25.7902ZM21.4308 22.4073C22.4411 23.142 22.8391 23.6166 22.8391 24.137C22.8391 24.6728 22.2727 25.3003 21.3543 26.2188C21.3696 24.9942 21.4002 23.7237 21.4308 22.4073ZM27.0179 7.69719C27.0179 7.69719 28.0894 8.64623 28.4721 8.99829C28.8547 9.35035 29.865 9.68711 29.865 9.68711C30.8447 10.0392 31.5794 10.0851 31.7172 9.6565C31.8243 9.31974 31.61 9.0289 31.2273 8.72276C30.7528 8.32478 28.3037 6.56447 28.3037 6.56447C28.3037 6.56447 30.7834 8.1564 31.5794 8.55439C32.3754 8.95237 33.7989 9.02891 34.3347 9.0136C34.8704 8.99829 35.6817 8.7993 34.9164 8.18702C34.151 7.57473 28.8241 4.92661 28.8241 4.92661C28.8241 4.92661 33.7836 7.23798 34.2581 7.36043C34.7174 7.4982 35.0082 7.60535 36.3552 7.65127C37.7022 7.68188 38.1768 7.7278 38.238 7.34513C38.2992 6.97776 37.7635 6.83999 37.1206 6.41139C36.4777 5.9981 28.8241 2.18664 28.8241 2.18664L37.7022 6.22771C37.7022 6.22771 38.7125 6.31955 39.9218 6.28894C41.131 6.25832 41.7127 6.04402 41.3913 5.9828C41.0698 5.92157 39.2942 5.47766 36.4624 4.34494C33.6306 3.21221 31.3345 1.92642 29.6048 0.916149C27.8751 -0.0788121 25.9005 -0.308419 24.6759 0.548778C23.4513 1.40598 23.8493 3.42651 23.482 4.23779C23.1758 4.89599 22.4717 4.86538 21.9819 4.83476C21.9819 4.95722 21.9819 5.09499 21.9666 5.23275H22.4717H22.5329C22.8084 5.23275 23.2677 5.23275 23.5585 4.80415C23.8799 4.31432 23.8953 3.79388 23.9106 3.38059C23.9259 2.753 24.0942 1.58966 24.9208 0.916149C25.7933 0.212023 27.4924 0.319173 28.3802 0.671236C28.8241 0.839614 29.7119 1.32944 30.5538 1.80396C31.2886 2.21725 31.9621 2.55401 32.4672 2.78361C32.1458 2.78361 31.1814 2.30909 30.4161 1.92642C29.5895 1.49782 28.7323 1.06922 28.2884 0.900842C26.9873 0.380401 25.579 0.701849 25.0586 1.11514C24.2932 1.72742 24.1555 2.81423 24.1402 3.4112C24.1249 3.8245 24.1096 4.40616 23.7422 4.94191C23.4207 5.44705 22.9156 5.47766 22.5942 5.47766C22.5635 5.47766 22.5482 5.47766 22.5176 5.47766H21.9666C21.9359 6.57977 21.9053 8.01864 21.8747 9.6565C22.9156 10.9882 23.5126 11.1566 24.0024 11.0494C24.4616 10.9576 24.0024 9.91672 23.8646 9.64119C24.0483 9.96264 24.2626 10.2535 24.5075 10.529C25.0127 11.0954 25.4872 11.0801 25.9464 11.0188C26.4056 10.9576 26.2678 10.6055 26.1607 10.1463C26.0536 9.68711 25.5637 8.89114 25.5637 8.89114C25.8546 9.30443 26.176 9.71772 26.5128 10.1004C26.972 10.5902 28.5945 11.0801 28.8088 10.6055C28.9466 10.2994 28.9007 10.1463 28.5945 9.57996C28.3037 9.0136 27.0179 7.69719 27.0179 7.69719ZM21.1247 3.01322C21.3696 3.01322 21.6145 2.93668 21.8135 2.79892C22.0125 2.66116 22.1809 2.46216 22.2727 2.24786C22.3645 2.01826 22.3952 1.77335 22.3492 1.52843C22.3033 1.28352 22.1809 1.06922 22.0125 0.885534C21.8441 0.717156 21.6145 0.5947 21.3696 0.548778C21.1247 0.502857 20.8798 0.518164 20.6501 0.625314C20.4205 0.717156 20.2215 0.885534 20.0991 1.08453C19.9613 1.28352 19.8848 1.52843 19.8848 1.77335C19.8848 1.94172 19.9154 2.09479 19.9766 2.24786C20.0379 2.40094 20.1297 2.5387 20.2522 2.64585C20.3746 2.76831 20.4971 2.86015 20.6501 2.92138C20.7879 2.98261 20.9563 3.01322 21.1247 3.01322ZM25.1964 12.3199C25.1964 12.3199 25.1657 11.4627 23.7728 11.3709C22.3492 11.279 22.288 11.8913 22.3186 12.1209C22.4258 12.1209 22.5176 12.1516 22.5176 12.1822C22.5176 12.2128 22.4411 12.2434 22.3492 12.2434C22.4258 12.473 22.6401 12.7485 23.2524 13.0547C23.7575 13.2996 24.0024 13.2843 24.2932 13.2384C24.2932 13.2384 24.63 13.4373 24.63 13.7588C24.63 14.0649 24.0942 14.6619 21.5839 15.9171C21.737 9.15136 21.8747 3.21221 21.8747 3.21221H22.0278C22.089 3.21221 22.1502 3.1816 22.1962 3.13568C22.2421 3.08975 22.2727 3.02853 22.2727 2.9673V2.89076C22.2727 2.86015 22.2727 2.82953 22.2574 2.79892C22.2421 2.76831 22.2268 2.73769 22.1962 2.72238C22.0584 2.87546 21.9053 2.99791 21.7216 3.08976C21.538 3.1816 21.339 3.21221 21.14 3.21221C20.941 3.21221 20.742 3.16629 20.5583 3.08976C20.3746 3.01322 20.2062 2.87546 20.0838 2.72238C20.0532 2.753 20.0379 2.76831 20.0226 2.79892C20.0072 2.82953 20.0072 2.86015 20.0072 2.89076V2.9673C20.0072 3.02853 20.0379 3.08975 20.0838 3.13568C20.1297 3.1816 20.1909 3.21221 20.2522 3.21221H20.4052C20.4052 3.21221 20.5124 8.98299 20.6195 15.6263C20.8338 15.7334 21.0481 15.8406 21.293 15.963C21.3237 15.9783 21.3696 15.9936 21.4002 16.0089C21.9666 16.2845 22.4411 16.5141 22.8391 16.7284C24.1861 16.2079 25.5025 15.611 25.9005 14.7691C26.6046 13.2077 25.1964 12.3199 25.1964 12.3199ZM23.3289 11.9679C23.1758 11.9679 23.0534 11.8913 23.0534 11.7995C23.0534 11.7076 23.1758 11.6311 23.3289 11.6311C23.482 11.6311 23.6044 11.7076 23.6044 11.7995C23.6044 11.8913 23.482 11.9679 23.3289 11.9679ZM20.8951 31.3466C21.0175 31.1936 21.1247 31.0405 21.2471 30.9027C21.2624 30.0302 21.293 29.0506 21.3084 27.9944C21.1553 27.8413 20.9869 27.6883 20.8032 27.5199C20.742 27.474 20.6961 27.4127 20.6348 27.3668C20.5583 27.2903 20.4818 27.229 20.4052 27.1678C19.9766 27.5658 19.1347 28.4536 19.1347 29.219C19.1347 30.1221 20.0073 31.0405 20.6655 31.6987C20.7267 31.5609 20.8032 31.4538 20.8951 31.3466ZM20.8032 27.7036C20.8338 29.0047 20.8491 30.1986 20.8644 31.2242C20.3593 30.5507 19.8236 29.8619 19.8236 29.3873C19.8236 28.9434 20.0838 28.4383 20.8032 27.7036ZM21.1553 16.162C18.1704 14.7231 17.5581 14.0649 17.5581 13.7435C17.5581 13.422 17.8949 13.223 17.8949 13.223C18.1857 13.2843 18.4306 13.2843 18.9358 13.0394C19.548 12.7485 19.7623 12.4577 19.8389 12.2281C19.747 12.2281 19.6705 12.1975 19.6705 12.1669C19.6705 12.1362 19.7623 12.1056 19.8695 12.1056V12.0903C19.8848 11.8607 19.8083 11.2637 18.4 11.3556C17.0071 11.4474 16.9764 12.3046 16.9764 12.3046C16.9764 12.3046 15.5682 13.2077 16.3029 14.7385C16.9458 16.1008 19.9613 16.8202 21.7063 17.6009C23.436 18.3815 23.3289 19.055 23.3289 19.055C23.3289 19.6367 22.1656 20.249 21.2471 20.8919C20.3287 21.5348 18.3847 22.6522 18.3847 23.9686C18.3847 25.1779 19.594 26.1116 20.7726 27.1525C21.9666 28.1934 22.3492 28.821 22.3492 29.4026C22.3492 30.1986 21.0328 31.2701 20.3593 32.6018C19.6858 33.9335 21.0175 36 20.6042 34.9132C20.1756 33.8264 20.4052 33.061 20.9563 32.2957C21.6298 31.3619 23.0687 30.4435 23.0687 29.2037C23.0687 28.1628 21.5533 26.9382 21.5533 26.9382C20.2062 25.5912 19.349 24.8258 19.349 24.1523C19.349 23.4788 19.9919 22.8818 21.7982 21.7032C23.5891 20.5398 24.6453 20.0806 24.6453 18.9479C24.6453 17.9529 24.1402 17.6009 21.1553 16.162ZM18.8592 11.6464C19.0123 11.6464 19.1347 11.723 19.1347 11.8148C19.1347 11.9066 19.0123 11.9832 18.8592 11.9832C18.7061 11.9832 18.5837 11.9066 18.5837 11.8148C18.5837 11.723 18.7061 11.6464 18.8592 11.6464ZM55.7187 23.387L53.6522 27.8566H54.5247L54.9839 26.8311H57.28L57.7392 27.8566H58.627L56.5606 23.387H55.7187ZM55.2748 26.1728L56.132 24.2288L56.9892 26.1728H55.2748Z" fill="white"/>
</svg>
