<svg width="24" height="24" viewBox="0 0 24 24" fill="none" xmlns="http://www.w3.org/2000/svg">
<path d="M18.01 12.245L18.514 11.058C18.75 10.502 19.315 10.198 19.87 10.314L19.988 10.345L20.618 10.547C21.244 10.747 21.722 11.282 21.877 11.954C22.244 13.552 21.803 15.497 20.555 17.79C19.308 20.079 17.941 21.455 16.455 21.919C16.1715 22.0069 15.8703 22.0216 15.5795 21.9618C15.2888 21.902 15.0179 21.7696 14.792 21.577L14.668 21.463L14.19 20.983C13.9889 20.7759 13.8589 20.5103 13.8188 20.2244C13.7787 19.9386 13.8306 19.6474 13.967 19.393L14.038 19.276L14.76 18.216C15.043 17.799 15.53 17.602 15.997 17.701L16.124 17.736L17.456 18.18C17.9965 17.7678 18.4488 17.2512 18.786 16.661C19.0776 16.1706 19.2794 15.6322 19.382 15.071L19.42 14.801L18.311 13.749C18.1319 13.5746 18.0046 13.354 17.9431 13.1116C17.8817 12.8693 17.8886 12.6147 17.963 12.376L18.01 12.245ZM19.745 4C20.3417 4 20.914 4.23705 21.336 4.65901C21.7579 5.08097 21.995 5.65326 21.995 6.25L21.996 10.229C21.742 9.98916 21.4456 9.7986 21.122 9.667L20.922 9.594L20.495 9.457V6.25C20.495 6.05109 20.416 5.86032 20.2753 5.71967C20.1347 5.57902 19.9439 5.5 19.745 5.5H4.25C4.05109 5.5 3.86032 5.57902 3.71967 5.71967C3.57902 5.86032 3.5 6.05109 3.5 6.25V17.755C3.5 18.169 3.836 18.505 4.25 18.505L6.999 18.504L7 15.75C7.00002 15.3108 7.16517 14.8877 7.46268 14.5646C7.76019 14.2415 8.1683 14.0421 8.606 14.006L8.75 14H15.245C15.6843 14 16.1076 14.1653 16.4307 14.463C16.7538 14.7608 16.9531 15.1691 16.989 15.607L16.995 15.75L16.994 16.972L16.44 16.787L16.274 16.739C15.866 16.6397 15.4381 16.6598 15.0412 16.7971C14.6444 16.9343 14.2954 17.1828 14.036 17.513L13.932 17.653L13.211 18.713L13.113 18.87C12.913 19.222 12.811 19.614 12.806 20.004H4.25C3.65344 20.004 3.08129 19.7671 2.65936 19.3453C2.23744 18.9236 2.00027 18.3516 2 17.755V6.25C2 5.65326 2.23705 5.08097 2.65901 4.65901C3.08097 4.23705 3.65326 4 4.25 4H19.745ZM12 7C12.7956 7 13.5587 7.31607 14.1213 7.87868C14.6839 8.44129 15 9.20435 15 10C15 10.7956 14.6839 11.5587 14.1213 12.1213C13.5587 12.6839 12.7956 13 12 13C11.2044 13 10.4413 12.6839 9.87868 12.1213C9.31607 11.5587 9 10.7956 9 10C9 9.20435 9.31607 8.44129 9.87868 7.87868C10.4413 7.31607 11.2044 7 12 7Z" fill="white"/>
</svg>
