<svg width="53" height="12" viewBox="0 0 53 12" fill="none" xmlns="http://www.w3.org/2000/svg">
<g clip-path="url(#clip0_635_4028)">
<path d="M11.0228 11.7647H1.67676C1.06466 11.7647 0.467431 11.4362 0.183739 10.8838C-0.144569 10.2418 -0.025287 9.48041 0.482303 8.98769L6.99184 2.47836H2.31871C1.03471 2.47836 0.00455909 1.43323 0.00455909 0.164103H8.61912C9.23123 0.164103 9.82835 0.492615 10.112 1.04503C10.4406 1.68697 10.3211 2.44841 9.81348 2.94103L3.30405 9.45056H8.69379C9.97769 9.45056 11.0228 10.4957 11.0228 11.7647ZM48.0188 0C46.6752 0 45.4808 0.582256 44.6447 1.5079C43.8087 0.582256 42.6142 0 41.2706 0C38.7923 0 36.7618 2.12 36.7618 4.59836V11.7647C38.0457 11.7647 39.0758 10.7196 39.0758 9.45056V4.58349C39.0758 3.38903 40.0015 2.37385 41.1958 2.32913C42.45 2.28431 43.4801 3.28451 43.4801 4.52369V9.45056C43.4801 10.7346 44.5253 11.7647 45.7943 11.7647V4.56851C45.7943 3.37415 46.7199 2.35887 47.9143 2.31415C49.1685 2.26933 50.1986 3.26964 50.1986 4.50882V9.43559C50.1986 10.7197 51.2437 11.7497 52.5128 11.7497V4.58359C52.5276 2.12 50.4972 0 48.0188 0ZM22.7277 5.9719C22.7277 9.27139 20.0553 11.9438 16.7558 11.9438C13.4564 11.9438 10.7839 9.27139 10.7839 5.9719C10.7839 2.67241 13.4564 0 16.7558 0C20.0553 0 22.7277 2.67241 22.7277 5.9719ZM20.4136 5.9719C20.4136 3.95641 18.7713 2.31415 16.7558 2.31415C14.7404 2.31415 13.098 3.95641 13.098 5.9719C13.098 7.98749 14.7404 9.62974 16.7558 9.62974C18.7713 9.62974 20.4136 7.98749 20.4136 5.9719ZM35.5972 5.9719C35.5972 9.27139 32.9248 11.9438 29.6253 11.9438C26.3258 11.9438 23.6534 9.27139 23.6534 5.9719C23.6534 2.67241 26.3258 0 29.6253 0C32.9248 0 35.5973 2.67241 35.5973 5.9719M33.2832 5.9719C33.2832 3.95641 31.641 2.31415 29.6254 2.31415C27.61 2.31415 25.9676 3.95641 25.9676 5.9719C25.9676 7.98749 27.6099 9.62974 29.6254 9.62974C31.641 9.62974 33.2832 7.98749 33.2832 5.9719Z" fill="white"/>
</g>
<defs>
<clipPath id="clip0_635_4028">
<rect width="52.5128" height="12" fill="white"/>
</clipPath>
</defs>
</svg>
